# xmcd CD database file
#
# Track frame offsets:
#	150
#	15618
#	35568
#	56361
#	75061
#	97333
#	120457
#	142535
#	160892
#	180883
#	195015
#	226776
#	250807
#	269207
#	283836
#	298773
#
# Disc length: 4283 seconds
#
# Revision: 2
# Processed by: cddbd v1.5.2PL0 Copyright (c) Steve Scherf et al.
# Submitted via: CDex 1.70beta2
#
DISCID=cb10b910
DTITLE=RIP SLYME - BAD TIMES -2000-2010 URA-BAN BEST- (Disc-1)
DYEAR=2010
DGENRE=Blues
TTITLE0=完全試合
TTITLE1=AIR CONDITIONER
TTITLE2=BLOSSOM
TTITLE3=FRESH
TTITLE4=ジャッジメント (feat.BLACK BOTTOM BRASS BAND and KYON)
TTITLE5=Today
TTITLE6=DISCO-MMUNICATION
TTITLE7=HOME
TTITLE8=Bright in time
TTITLE9=By the Way
TTITLE10=花火
TTITLE11=WHY
TTITLE12=VIP SLYME
TTITLE13=BOUND to REBOUND
TTITLE14=チェッカー・フラッグ
TTITLE15=虹
EXTD=YEAR: 2010
EXTT0=
EXTT1=
EXTT2=
EXTT3=
EXTT4=
EXTT5=
EXTT6=
EXTT7=
EXTT8=
EXTT9=
EXTT10=
EXTT11=
EXTT12=
EXTT13=
EXTT14=
EXTT15=
PLAYORDER=
